# xmcd CD Database Entry
#
# Track frame offsets:
# 183
# 23198
# 40833
# 76148
# 104735
# 112933
# 147028
# 172300
# 196128
# 228548
#
# Disc length: 4327 seconds
#
# Revision: 2
# Processed by: cddbd v1.4PL0 Copyright (c) Steve Scherf et al.
# Submitted via: tcd 2.0b
#
DISCID=8010e50a
DTITLE=Sir John Barbirolli - Mahler Symphony 6, Strauss' Ein Hledenl
DTITLE=eben
DYEAR=1900
DGENRE=
TTITLE0=Strauss' Ein Heldenleben 1: The Hero
TTITLE1=The Hero's Adversaries
TTITLE2=The Hero's wife
TTITLE3=Certainty of Victory
TTITLE4=The Hero's Battlefield
TTITLE5=War fanfares
TTITLE6=The Hero's works of peace
TTITLE7=The Hero's withdrawal from the world
TTITLE8=Renunciation
TTITLE9=Mahler Symphony No 6 - I: Allegro energico, ma non troppo, He
TTITLE9=ftic, aber markig
EXTD=
EXTT0=
EXTT1=
EXTT2=
EXTT3=
EXTT4=
EXTT5=
EXTT6=
EXTT7=
EXTT8=
EXTT9=
PLAYORDER=
